<?xml version="1.0" encoding="UTF-8" standalone="no"?>
<svg width="24px" height="21px" viewBox="0 0 24 21" version="1.1" xmlns="http://www.w3.org/2000/svg" xmlns:xlink="http://www.w3.org/1999/xlink">
    <!-- Generator: Sketch 3.6.1 (26313) - http://www.bohemiancoding.com/sketch -->
    <title>user</title>
    <desc>Created with Sketch.</desc>
    <defs>
        <path id="path-1" d="M12.00005,6 L24,6 L24,0 L0.0001,0 L0.0001,6 L12.00005,6 L12.00005,6 Z"></path>
    </defs>
    <g id="Page-1" stroke="none" stroke-width="1" fill="none" fill-rule="evenodd">
        <g id="1360+" transform="translate(-1311.000000, -860.000000)">
            <g id="Group-6-Copy" transform="translate(-5.000000, 831.000000)">
                <g id="Group-4">
                    <g id="user" transform="translate(1316.000000, 29.000000)">
                        <g id="Page-1-Copy">
                            <path d="M18.5,6.5 C18.5,10.107 15.597,13 12,13 C8.403,13 5.5,10.107 5.5,6.5 C5.5,2.903 8.403,0 12,0 C15.597,0 18.5,2.903 18.5,6.5" id="Fill-1" fill="#0669DE"></path>
                            <g id="Group-5" transform="translate(0.000000, 15.000000)">
                                <mask id="mask-2" fill="white">
                                    <use xlink:href="#path-1"></use>
                                </mask>
                                <g id="Clip-4"></g>
                                <path d="M22.8921,6 C22.1591,6 21.8181,5.545 21.8181,5.141 C21.8181,3.26 18.2211,2 12.0001,2 C5.7791,2 2.1821,3.136 2.1821,5.141 C2.1821,5.546 1.7721,6 1.0901,6 C0.3581,6 0.0001,5.513 0.0001,5.108 C0.0001,1.958 4.5981,0 12.0001,0 C19.4021,0 24.0001,1.958 24.0001,5.108 C24.0001,5.513 23.6011,6 22.8921,6" id="Fill-3" fill="#0669DE" mask="url(#mask-2)"></path>
                            </g>
                            <path d="M16.5,6.5674 C16.5,9.0534 14.486,11.0664 12,11.0664 C9.514,11.0664 7.5,9.0534 7.5,6.5674 C7.5,4.0914 9.514,2.0674 12,2.0674 C14.486,2.0674 16.5,4.0914 16.5,6.5674" id="Fill-6" fill="#FFFFFF"></path>
                        </g>
                    </g>
                </g>
            </g>
        </g>
    </g>
</svg>